<svg version="1.1" id="katman_1" xmlns="http://www.w3.org/2000/svg" x="0" y="0" viewBox="0 0 1024 1024" xml:space="preserve"><style>.st0{fill:#3a76f0}</style><path class="st0" d="M28.4 241.6v540.7c0 117.7 95.5 213.2 213.2 213.2h540.7c117.7 0 213.2-95.5 213.2-213.2V241.6c0-117.7-95.5-213.2-213.2-213.2H241.6c-117.7 0-213.2 95.5-213.2 213.2z"/><path d="M430.1 180.9l7.7 31c-30.2 7.4-59.1 19.4-85.7 35.4L335.7 220c29.3-17.7 61.2-30.9 94.4-39.1zm163.8 0l-7.7 31c30.2 7.4 59.1 19.4 85.7 35.4l16.5-27.4c-29.4-17.6-61.2-30.8-94.5-39zM220 335.7c-17.7 29.3-30.9 61.2-39.1 94.4l31 7.7c7.4-30.2 19.4-59.1 35.4-85.7L220 335.7zM202.9 512c0-15.5 1.1-31 3.5-46.3l-31.6-4.8c-5.1 33.9-5.1 68.3 0 102.2l31.6-4.8c-2.3-15.3-3.5-30.8-3.5-46.3zm485.4 292l-16.4-27.4c-26.6 16.1-55.4 28-85.6 35.4l7.7 31c33.2-8.2 65-21.3 94.3-39zm132.8-292c0 15.5-1.1 31-3.5 46.3l31.6 4.8c5.1-33.9 5.1-68.3 0-102.2l-31.6 4.8c2.3 15.3 3.5 30.8 3.5 46.3zm22 81.8l-31-7.7c-7.4 30.2-19.4 59.1-35.4 85.7l27.4 16.5c17.6-29.3 30.8-61.2 39-94.5zM558.3 817.6c-30.7 4.6-61.9 4.6-92.6 0l-4.8 31.6c33.9 5.1 68.3 5.1 102.2 0l-4.8-31.6zm202.5-122.3c-18.4 25-40.5 47-65.5 65.4l19 25.7c27.6-20.3 51.9-44.5 72.3-72l-25.8-19.1zm-65.5-432.1c25 18.4 47.1 40.5 65.5 65.5l25.7-19.2c-20.3-27.5-44.6-51.8-72-72l-19.2 25.7zm-432.1 65.5c18.4-25 40.5-47.1 65.5-65.5l-19.2-25.7c-27.5 20.3-51.8 44.6-72 72l25.7 19.2zm540.8 7l-27.4 16.4c16.1 26.6 28 55.4 35.4 85.6l31-7.7c-8.1-33.2-21.3-65-39-94.3zM465.7 206.4c30.7-4.6 61.9-4.6 92.6 0l4.8-31.6c-33.9-5.1-68.3-5.1-102.2 0l4.8 31.6zM279.6 795l-66 15.4 15.4-66-31.1-7.3-15.4 66c-2.5 10.8.7 22.1 8.5 29.9s19.1 11 29.9 8.5l66-15.1-7.3-31.4zm-75.1-86.5l31.1 7.2 10.7-45.8c-15.5-26.1-27.1-54.4-34.4-83.9l-31 7.7c7 28.3 17.5 55.5 31.4 81l-7.8 33.8zm149.2 69.3L308 788.5l7.2 31.1 33.7-7.8c25.6 13.9 52.8 24.5 81.1 31.4l7.7-31c-29.4-7.3-57.6-19-83.7-34.6l-.3.2zM512 234.9c-100.8.1-193.7 54.9-242.4 143.1s-45.7 196 8 281.4L251 773.1l113.7-26.6c99.7 62.8 228.2 55.7 320.4-17.7S812.9 531.7 774 420.5c-39.2-111.3-144.2-185.7-262-185.6z" fill="#fff"/></svg>