<?xml version="1.0" encoding="utf-8"?>
<!-- Generator: Adobe Illustrator 25.0.1, SVG Export Plug-In . SVG Version: 6.00 Build 0)  -->
<svg version="1.1" id="Layer_1" xmlns="http://www.w3.org/2000/svg" xmlns:xlink="http://www.w3.org/1999/xlink" x="0px" y="0px"
	 width="30px" height="29px" viewBox="0 0 30 29" style="enable-background:new 0 0 30 29;" xml:space="preserve">
<style type="text/css">
	.st0{opacity:0.1;fill:#B6FFF4;enable-background:new    ;}
	.st1{fill:#D7FFFA;}
</style>
<path class="st0" d="M26.5,0h-23C1.6,0,0,1.6,0,3.5v22C0,27.4,1.6,29,3.5,29h23c1.9,0,3.5-1.6,3.5-3.5c0,0,0,0,0,0v-22
	C30,1.6,28.4,0,26.5,0z M18.7,13.5l-4.6,3.2l4.6,3.1V24l-10-7.4l10-7.3V13.5z"/>
<path class="st1" d="M24.5,10.6l-7.8-7.4c-0.9-0.9-2.4-0.8-3.3,0l-8,8c-0.4,0.5-0.7,1.1-0.7,1.7l0.1,10.2c0,1.3,1.1,2.4,2.4,2.4
	h15.7c1.3,0,2.4-1.1,2.4-2.4c0,0,0,0,0,0V12.4C25.2,11.7,25,11.1,24.5,10.6z M18.7,13.5l-4.6,3.2l4.6,3.1V24l-10-7.4l10-7.3V13.5z"
	/>
</svg>
