<svg id="Layer_1" data-name="Layer 1" xmlns="http://www.w3.org/2000/svg" viewBox="0 0 284.81 37.73"><defs><style>.cls-1{fill:#cdfffa;stroke:#cdfffa;stroke-miterlimit:10;stroke-width:2px;}</style></defs><path class="cls-1" d="M118.5,260H123a.5.5,0,0,0,.5-.5V246.08a.5.5,0,0,1,.5-.5h2.83a.51.51,0,0,1,.4.2l10.62,14a.48.48,0,0,0,.4.2h7.83a.5.5,0,0,0,.38-.83L133.67,244.3a.5.5,0,0,1,0-.62L146.59,226a.5.5,0,0,0-.41-.79h-6.93a.48.48,0,0,0-.4.2l-10.7,14.43a.48.48,0,0,1-.4.2H124.5a.5.5,0,0,1-.5-.5V225.67a.5.5,0,0,0-.5-.5h-5a.5.5,0,0,0-.5.5V259.5A.5.5,0,0,0,118.5,260Z" transform="translate(-117 -223.69)"/><rect class="cls-1" x="37.5" y="1.48" width="26.92" height="4.83"/><rect class="cls-1" x="37.54" y="15.6" width="26.92" height="4.83" rx="0.5"/><rect class="cls-1" x="37.54" y="31.6" width="26.92" height="4.83" rx="0.5"/><path class="cls-1" d="M188.73,226l12.16,14.9a.52.52,0,0,1,.11.32V259.5a.5.5,0,0,0,.5.5h5.25a.5.5,0,0,0,.5-.5V241.17a.51.51,0,0,1,.11-.31l12-15.05A.5.5,0,0,0,219,225h-5.7a.51.51,0,0,0-.41.21l-6.7,9.58a.51.51,0,0,1-.41.21h-2.49a.48.48,0,0,1-.4-.2l-7.28-9.6a.5.5,0,0,0-.41-.19l-6,.13A.5.5,0,0,0,188.73,226Z" transform="translate(-117 -223.69)"/><path class="cls-1" d="M255.5,226v5a.5.5,0,0,1-.5.5H234a.5.5,0,0,0-.5.5v8a.5.5,0,0,0,.5.5h22.75a.5.5,0,0,1,.5.5v18.92a.5.5,0,0,1-.5.5H229.5a.5.5,0,0,1-.5-.5v-5.09a.5.5,0,0,1,.5-.5h22a.5.5,0,0,0,.5-.5V247a.5.5,0,0,0-.5-.5H229a.5.5,0,0,1-.5-.5V226a.5.5,0,0,1,.5-.5h26A.5.5,0,0,1,255.5,226Z" transform="translate(-117 -223.69)"/><path class="cls-1" d="M264.92,226v4.08a.5.5,0,0,0,.5.5H276.5a.5.5,0,0,1,.5.5v28.84a.5.5,0,0,0,.5.5h4a.5.5,0,0,0,.5-.5V231a.5.5,0,0,1,.5-.5h11a.5.5,0,0,0,.5-.5v-4a.5.5,0,0,0-.5-.5H265.42A.5.5,0,0,0,264.92,226Z" transform="translate(-117 -223.69)"/><path class="cls-1" d="M300.33,225.5v34a.5.5,0,0,0,.5.5h28a.5.5,0,0,0,.5-.5v-34a.5.5,0,0,0-.5-.5h-28A.5.5,0,0,0,300.33,225.5Zm22.17,28h-16a.5.5,0,0,1-.5-.5V231.5a.5.5,0,0,1,.5-.5h16a.5.5,0,0,1,.5.5V253A.5.5,0,0,1,322.5,253.5Z" transform="translate(-117 -223.69)"/><path class="cls-1" d="M337.08,260h6.09a.5.5,0,0,0,.5-.5v-28a.5.5,0,0,1,.5-.5h15a.5.5,0,0,1,.5.5v28a.5.5,0,0,0,.5.5h6.16a.5.5,0,0,0,.5-.5v-34a.5.5,0,0,0-.5-.5H337.08a.5.5,0,0,0-.5.5v34A.5.5,0,0,0,337.08,260Z" transform="translate(-117 -223.69)"/><rect class="cls-1" x="256.85" y="1" width="26.92" height="4.83"/><rect class="cls-1" x="256.9" y="15.12" width="26.92" height="4.83" rx="0.5"/><rect class="cls-1" x="256.9" y="31.12" width="26.92" height="4.83" rx="0.5"/></svg>