<svg xmlns="http://www.w3.org/2000/svg" viewBox="0 0 307.655 323.792"><g fill="#1d1d1d"><path d="M135.732 2.737c5.5 2.92 11.72 4.58 15.77 9.27a37.056 37.056 0 0 1 8.25 17.69c1.19 6.29-.98 12.47-2.17 18.7-1.75 8.18-6.49 14.12-10.63 21.2-2.69 4.63-6.72 7.88-9.83 12.13-2.81 3.89-3.77 8.59-3.91 13.31a39.522 39.522 0 0 0 5.75 20.57c1.87 3.21 5.34 5.41 7.01 8.66.22 4.61-4.89 8.26-9.19 6.61-2.54-1.18-4.6-3.66-6.29-5.85-4.49-5.98-6.35-14.38-8.2-21.54-1.36-7.36-.65-16.41 4-22.56a172.919 172.919 0 0 1 10.94-14.06c7.24-8.35 10.71-19.97 11.41-30.83-.31-5.9-2.4-12.18-7.15-15.99-4.73-3.77-10.07-7.2-15.87-9.06a31.716 31.716 0 0 1-5.15-2.04c-2.18-2.12-1.76-6.47 1.11-7.81 4.95-2.33 9.6-.72 14.15 1.6Zm-42.23 29.05c4.89.53 9.61 3.84 13.26 6.97 9.91 8.66 12.42 24.2 6.01 35.65-4.04 7-8.76 12.91-13.34 19.67-4.38 5.93-8.14 13.49-8.24 20.98-.29 7.04 3.59 14.09 7.72 19.56 3.77 5.01 10 5.89 13.98 10.09.88 2.62.23 5.53-2.59 6.57-3.96.96-8.62-.3-12.37-1.69-4.76-1.86-7.49-5.71-10.13-9.85-3.81-6.33-7.3-13.13-7.7-20.65-.4-7.08 2.62-14.58 5.6-20.89 5.33-9.01 12.71-17.09 17.37-26.51a19.964 19.964 0 0 0 1.18-15.45c-1.82-6.49-6.48-11.4-12.17-14.76-3.05-1.68-6.61-2.59-9.88-3.77.7-1.46.8-3.67 2.58-4.15a23.656 23.656 0 0 1 8.72-1.77Zm94.46.61a4.979 4.979 0 0 1 1.83 4.56c-1.37 2.79-4.13 4.95-6.08 7.38-4.08 4.62-6 10.13-8.44 15.72a58.259 58.259 0 0 0-4.63 20.98c-.14 5.27.17 11.46 2.67 16.22 1.57 2.76 4.6 4.91 6.94 7.03a34.587 34.587 0 0 1 11.07 18.9c1.09 5.49-1.23 9.91-2.34 15.12-.87 3.86-1.44 8.04-4.41 10.95-2.53 2.56-8.27.55-8.05-3.28-.08-6.35 2.74-13.35 2.04-19.89a20.193 20.193 0 0 0-7.22-12.89c-3.38-2.94-7.06-4.73-8.94-9.06-4.4-9.32-3.98-20.95-2.67-30.94 2.06-10.34 5.21-21.37 12.61-29.23 2.46-2.61 4.62-5.43 6.87-8.2a8.919 8.919 0 0 1 8.75-3.37Z"/><path d="M117.599 286.273c-7.6 0-15.325-1.172-22.137-2.206a42.518 42.518 0 0 1-20.17-8.841c-1.015-.817-2.079-1.639-3.108-2.435a70.167 70.167 0 0 1-8.808-7.621 104.489 104.489 0 0 1-10.015-13.358 140.032 140.032 0 0 1-8.065-14.632 117.759 117.759 0 0 1-8.041-33.08c-.1-1.89-.148-3.806-.2-5.659v-.005a104.572 104.572 0 0 0-.818-12.393c-.694-5.324.585-10 1.94-14.94.159-.581.339-1.239.51-1.879a33.613 33.613 0 0 1 24.86-23.91 3.232 3.232 0 0 1 3.312.977 3.524 3.524 0 0 1 .939 2.664c-.526 3.727-1.3 7.266-4.99 9.61a22.987 22.987 0 0 1-4.055 2.625c-2.321 1.284-4.72 2.61-6.135 5.015-2.712 4.725-5.382 10.278-2.71 16.38 3.155 6.852 9.908 9.8 16.438 12.654q.694.3 1.382.606c11.14 5.044 22.827 7.532 32.79 9.3a23.461 23.461 0 0 0 3.55.246 64.915 64.915 0 0 0 7.44-.581c.75-.088 1.524-.178 2.271-.256 2.838-.335 5.73-.554 8.526-.765 3.29-.249 6.692-.506 10.023-.955 6.256-.866 12.687-1.392 18.906-1.9 8-.655 16.279-1.332 24.254-2.74.988-.129 1.991-.257 2.961-.381 8.6-1.1 16.718-2.134 24.81-4.909 12.474-2.985 23.465-13.257 28-26.17.859-2.577 1.429-6.177-.73-8.69a19.746 19.746 0 0 0-4.592-2.161c-2.261-.843-4.6-1.714-6.008-3.419a4.7 4.7 0 0 1-.571-4.928 3.58 3.58 0 0 1 3.311-2.312h.011c.651-.055 1.335-.083 2.03-.083a41.209 41.209 0 0 1 8.609 1.063c5.135 1.047 8.655 5.917 10.11 9.77a23.775 23.775 0 0 1 .511 6.141 22.417 22.417 0 0 0 .659 6.719 45.082 45.082 0 0 1 1.378 12.441 52.081 52.081 0 0 1-1.877 12.389c-.707 2.574-1.3 5.2-1.87 7.741a92.084 92.084 0 0 1-3.81 13.619c-1.106 2.779-2.013 5.659-2.89 8.445a88.606 88.606 0 0 1-4.2 11.456c-.713 1.52-1.4 3.043-2.069 4.516-2.454 5.423-4.772 10.543-8.131 15.3a97.46 97.46 0 0 1-12.209 14.79c-4.257 4.026-10.189 6.033-14.881 7.33-1.458.406-2.943.893-4.379 1.364a47.126 47.126 0 0 1-9.391 2.386c-2.766.293-5.611.41-8.363.523-3.27.134-6.65.273-9.967.707-3.3.46-6.648 1.035-9.883 1.591-3.442.592-7 1.2-10.518 1.678a108.111 108.111 0 0 1-11.887.723c-2.35.055-4.779.113-7.193.267-1.568.117-3.2.173-4.86.173Zm-69.007-87.5c-.343 9.781 2.218 20.676 7.83 33.31a70.259 70.259 0 0 0 6.451 11.04c.854 1.276 1.736 2.6 2.586 3.935 3.525 5.4 7.13 10.573 12.44 14.56 6.575 4.969 12.378 7.939 17.74 9.08 8.992 1.607 17.411 1.616 26.324 1.627 3.092 0 6.289.007 9.506.083.252.006.51.009.766.009a55.737 55.737 0 0 0 11.708-1.593 81.54 81.54 0 0 1 8.6-1.476c4.982-.721 10.062-.959 14.974-1.188 2.929-.137 5.957-.279 8.937-.521 6.106-.414 12.152-2.426 17.26-4.34 5.059-1.932 8.436-5.692 12.011-9.672.355-.4.723-.8 1.088-1.208 7.378-8.11 11.895-19.3 15.88-29.18.95-3.159 2.063-6.437 3.139-9.608 2.976-8.767 6.052-17.831 6.651-26.752-1.664 1.317-3.322 2.76-4.925 4.155-4.582 3.989-9.32 8.113-15.035 10.094a126.455 126.455 0 0 1-26.3 6.57c-4.331.581-8.724 1.242-12.972 1.882-4.682.7-9.523 1.434-14.3 2.058-7.911.981-15.982 1.57-23.787 2.139-7.944.579-16.159 1.178-24.213 2.191a43.088 43.088 0 0 1-6.6.481 90.248 90.248 0 0 1-13.272-1.24c-7.7-1.184-15.33-4.106-22.712-6.933l-.033-.012-2.316-.885a89.9 89.9 0 0 1-10.766-5.176c-2.163-1.162-4.4-2.362-6.674-3.434Zm221.1-34.266c7.9-.79 14.81 1.54 22.06 4.26 4.22 1.61 8.06 3.5 10.73 7.29 5.33 7.83 7.03 18.05 2.77 26.78-2.6 5.92-7.44 8.92-12.43 12.6-4.87 3.53-10.16 4.69-15.36 7.68-5.29 3.03-11.73 6.51-17.93 6.73-4.69.28-7.37-6.41-3.64-9.37 3.03-2.26 7.44-2.5 10.86-4.19a195 195 0 0 0 18-9.98c4.84-3.02 8.36-7.49 9.08-13.27.26-3.46-.62-7.59-3.34-9.99a25.456 25.456 0 0 0-8.01-4.19c-5.46-2-11.1-.85-16.69-2.18-2.55-.35-4.24-3.93-2.99-6.11 1.34-2.92 3.42-5.77 6.89-6.06Z"/><path d="M28.452 248.877c2.46.61 5.21 2.72 5.71 5.32.31 1.87-1.36 2.9-2.78 3.66-4.08 1.8-8.66 1.79-11.99 5.13-5.53 5.39-7.07 13.59-6.62 21.02.29 5 3.34 8.64 7.19 11.51 5.87 4.13 12.83 6.23 19.59 8.4 6.23 2.02 12.38 2.16 18.78 3.11 11.28 1.98 22.74 2.72 34.11 4.15 8.33 1.22 15.71-1.74 24.01-1.48a132.289 132.289 0 0 0 26.73-1.89c7.74-1.49 15.45-1.2 23.27-1.94a140.817 140.817 0 0 1 20.02-.15c6.91.39 13.03-1.19 19.89-1.99 9.74-1.59 18.88-1.04 28.33-4.4 6.47-2.36 13.87-5.25 18.81-10.21 5.05-5.61 9.08-12.32 9.33-20.06.05-1.99.05-5.21-2.01-6.27-2.95-.3-6.14.71-9.04.12-3.48-1.62-5.06-6.67-3.65-10.1 1.72-3.38 7.2-2.9 10.35-2.82 4.14.43 10.18.48 12.9 4.15 3.33 3.61 3.57 9.54 3.95 14.19.39 4.25-.94 8.03-2.83 11.76-2.64 5.23-4.99 11.69-9.08 15.92-7.99 8.07-18.95 13.33-29.86 16.11-6.4 1.76-12.79 1.6-19.31 2.5-5.63.7-11.23 1.67-16.87 2.37-9.68 1.23-19.23-.23-28.92 1.08-7.63 1.05-15.21.24-22.82 1.31-2.47.33-4.88.82-7.36 1.09-13.3.94-26.65 1.72-39.91 3.18-9.7.85-18.31-2.32-27.89-2.37-7.28-.06-14.15-1.98-21.38-2.61a71.937 71.937 0 0 1-24.02-6.22c-6.58-3.05-14.17-6.46-19.17-11.84-4.08-4.43-4.92-9.73-5.58-15.5a38.765 38.765 0 0 1 2.49-19.58c2.1-5.33 5.31-10.66 10.07-14.02a20.2 20.2 0 0 1 15.56-2.63Z"/></g></svg>