<svg xmlns="http://www.w3.org/2000/svg" width="81.968" height="45.389"><path d="M1.172 9.641c5.062.216 7.335 9.392 8.326 13.13 1.116 4.363 1.748 8.825 2.814 13.2.833 3.43 2.456 12.139 7.651 8.584 6-4.1 8.326-13.779 10.182-20.265a119.035 119.035 0 0 0 3.014-13.471c.425-2.573 1.815-6.794.466-9.158-2.614-4.646-6.86 1.665-7.285 4.438-1.232 8.218 2.1 18.317 5.22 25.727.733 1.74 1.773 5.828 4.1 6.369s3.9-2.173 4.712-3.822a29.121 29.121 0 0 0 1.782-5.3c.325-1.174.741-5 1.865-5.6 2.623-1.349 3.115 6.469 3.264 7.443.275 1.807.491 3.971 1.6 5.5 4.687 6.494 10.108-8.717 11.306-11.331C64.5 15.661 71.425 8.343 81.134 4.438c1.474-.591.833-3.014-.667-2.406-11.606 4.679-18.575 13.229-23.595 24.394a56.539 56.539 0 0 1-2.5 5.1 6.551 6.551 0 0 1-1.1 1.8 2.66 2.66 0 0 1-3.081-.241c-.916-1.041-.691-4.279-.916-5.712a16.236 16.236 0 0 0-1.141-4.488c-1.54-3.2-4.754-3.4-6.511-.266-1.315 2.34-1.665 5.2-2.431 7.718-.375 1.191-1.4 5.362-3.455 4.654-1.207-.416-2.539-5.67-2.9-6.661a69.05 69.05 0 0 1-2.914-10.182c-.7-3.38-2.09-8.409-1.066-11.881.316-1.082 1.99-4.163 2.681-2.29a5.7 5.7 0 0 1-.2 1.973c-.25 2.173-.608 4.338-1.007 6.494Q29.3 18.1 27.723 23.646a95.743 95.743 0 0 1-3.28 9.791c-.949 2.331-6.128 12.822-8.25 7.044-2.5-6.752-2.906-14.062-5-20.914-1.482-4.812-4.08-12.147-9.991-12.4C-.4 7.1-.4 9.6 1.206 9.666Z" fill="#fff"/></svg>